<svg viewBox="0 0 160 41" fill="none" xmlns="http://www.w3.org/2000/svg">
<path d="M20.3743 0C9.12211 0 0 9.10677 0 20.3403C0 31.5743 9.12211 40.6804 20.3743 40.6804C31.6277 40.6804 40.7488 31.5743 40.7488 20.3403C40.7488 9.1075 31.6277 0.000971594 20.374 0.000971594L20.3743 0ZM29.7178 29.3366C29.6309 29.4788 29.5167 29.6025 29.3818 29.7006C29.2469 29.7987 29.0939 29.8693 28.9317 29.9084C28.7694 29.9474 28.601 29.9541 28.4362 29.9281C28.2713 29.9021 28.1132 29.8438 27.9709 29.7568C23.1873 26.8396 17.1652 26.179 10.0732 27.7966C9.74476 27.8712 9.40015 27.8125 9.11507 27.6335C8.82998 27.4545 8.62774 27.1698 8.5528 26.842C8.51548 26.6797 8.51059 26.5117 8.53841 26.3475C8.56624 26.1833 8.62623 26.0262 8.71495 25.8852C8.80368 25.7442 8.91939 25.622 9.05547 25.5257C9.19155 25.4294 9.34532 25.3609 9.50798 25.324C17.2691 23.5538 23.9264 24.316 29.2969 27.5926C29.8954 27.9594 30.0852 28.739 29.7178 29.3366ZM32.2116 23.7981C31.7517 24.5443 30.7737 24.7799 30.0268 24.3208C24.5502 20.9602 16.202 19.9869 9.72427 21.95C8.88417 22.2033 7.99687 21.7306 7.7419 20.8934C7.62024 20.4908 7.66343 20.0566 7.86201 19.6858C8.06059 19.315 8.39834 19.038 8.80121 18.9155C16.2005 16.6741 25.3993 17.7598 31.6885 21.6182C32.4354 22.0772 32.6714 23.0534 32.2116 23.7981ZM32.4257 18.0309C25.8591 14.1371 15.0252 13.779 8.75571 15.6787C7.74896 15.9835 6.6843 15.4161 6.3792 14.4111C6.2325 13.9282 6.2839 13.4069 6.52211 12.9618C6.76031 12.5168 7.16581 12.1844 7.64945 12.0378C14.8464 9.85658 26.8104 10.278 34.3706 14.7586C34.586 14.8859 34.7742 15.0543 34.9244 15.2543C35.0746 15.4543 35.1837 15.6819 35.2457 15.924C35.3076 16.1662 35.321 16.4182 35.2853 16.6655C35.2495 16.9129 35.1652 17.1508 35.0372 17.3656C34.502 18.2696 33.3293 18.5677 32.4266 18.0309H32.4257Z" fill="white"/>
<path d="M46.8537 11.3921H50.0189V18.8804H58.6137V11.3921H61.7788V29.4052H58.6137V21.814H50.0189V29.4052H46.8537V11.3921Z" fill="white"/>
<path d="M72.5549 27.012C73.1896 27.012 73.7558 26.9005 74.2533 26.6775C74.7679 26.4373 75.2054 26.12 75.5656 25.7254C75.9259 25.3308 76.2004 24.8762 76.3891 24.3615C76.5778 23.8297 76.6722 23.2722 76.6722 22.6889V22.6374C76.6722 22.037 76.5692 21.4709 76.3634 20.9391C76.1575 20.4072 75.8659 19.9441 75.4884 19.5495C75.1282 19.1549 74.6907 18.8461 74.1761 18.6231C73.6786 18.3829 73.121 18.2628 72.5034 18.2628C71.8858 18.2628 71.3197 18.3829 70.8051 18.6231C70.3075 18.8461 69.8787 19.1549 69.5184 19.5495C69.1581 19.9269 68.8837 20.3815 68.6949 20.9133C68.5062 21.4451 68.4119 22.0027 68.4119 22.586V22.6374C68.4119 23.2379 68.5148 23.804 68.7207 24.3358C68.9265 24.8505 69.2096 25.3137 69.5699 25.7254C69.9473 26.12 70.3847 26.4373 70.8822 26.6775C71.3969 26.9005 71.9545 27.012 72.5549 27.012ZM72.5034 29.714C71.4741 29.714 70.5134 29.5339 69.6213 29.1736C68.7464 28.7962 67.983 28.2901 67.3311 27.6554C66.6964 27.0206 66.1989 26.2744 65.8386 25.4166C65.4783 24.5588 65.2982 23.6496 65.2982 22.6889V22.6374C65.2982 21.6596 65.4783 20.7418 65.8386 19.884C66.216 19.0262 66.7221 18.28 67.3568 17.6452C68.0087 16.9933 68.7721 16.4787 69.6471 16.1013C70.5391 15.7239 71.5084 15.5351 72.5549 15.5351C73.6014 15.5351 74.5621 15.7239 75.437 16.1013C76.3291 16.4615 77.0925 16.9676 77.7272 17.6195C78.3791 18.2543 78.8852 19.0005 79.2455 19.8583C79.6057 20.6989 79.7858 21.6081 79.7858 22.586V22.6374C79.7858 23.5981 79.5971 24.5074 79.2197 25.3651C78.8595 26.2229 78.3534 26.9777 77.7015 27.6296C77.0667 28.2644 76.3033 28.7705 75.4112 29.1479C74.5192 29.5253 73.5499 29.714 72.5034 29.714Z" fill="white"/>
<path d="M89.9562 26.9863C90.488 26.9863 90.9855 26.8834 91.4487 26.6775C91.929 26.4716 92.3408 26.1886 92.6839 25.8283C93.0441 25.4509 93.3272 24.9963 93.5331 24.4645C93.7389 23.9155 93.8419 23.3065 93.8419 22.6374V22.586C93.8419 21.9341 93.7389 21.3422 93.5331 20.8104C93.3272 20.2614 93.0441 19.7982 92.6839 19.4208C92.3408 19.0434 91.929 18.7518 91.4487 18.5459C90.9855 18.34 90.488 18.2371 89.9562 18.2371C89.4244 18.2371 88.9183 18.34 88.4379 18.5459C87.9576 18.7518 87.5373 19.052 87.177 19.4466C86.8168 19.824 86.5251 20.2786 86.3021 20.8104C86.0962 21.3422 85.9933 21.9341 85.9933 22.586V22.6374C85.9933 23.2893 86.0962 23.8898 86.3021 24.4387C86.5251 24.9706 86.8168 25.4252 87.177 25.8026C87.5373 26.18 87.9576 26.4716 88.4379 26.6775C88.9183 26.8834 89.4244 26.9863 89.9562 26.9863ZM90.6767 29.6883C89.5616 29.6883 88.6352 29.4481 87.8975 28.9677C87.1599 28.4874 86.5509 27.9298 86.0705 27.2951V29.4052H82.9568V10.6202H86.0705V18.0827C86.568 17.3622 87.1856 16.7617 87.9233 16.2814C88.661 15.7839 89.5788 15.5351 90.6767 15.5351C91.483 15.5351 92.2636 15.6895 93.0184 15.9983C93.7732 16.3071 94.4423 16.7618 95.0256 17.3622C95.626 17.9626 96.1064 18.7003 96.4666 19.5752C96.8269 20.4501 97.007 21.4537 97.007 22.586V22.6374C97.007 23.7697 96.8269 24.7733 96.4666 25.6482C96.1235 26.5231 95.6517 27.2608 95.0513 27.8612C94.468 28.4617 93.7904 28.9163 93.0184 29.2251C92.2636 29.5339 91.483 29.6883 90.6767 29.6883Z" fill="white"/>
<path d="M107.195 26.9863C107.727 26.9863 108.225 26.8834 108.688 26.6775C109.168 26.4716 109.58 26.1886 109.923 25.8283C110.283 25.4509 110.566 24.9963 110.772 24.4645C110.978 23.9155 111.081 23.3065 111.081 22.6374V22.586C111.081 21.9341 110.978 21.3422 110.772 20.8104C110.566 20.2614 110.283 19.7982 109.923 19.4208C109.58 19.0434 109.168 18.7518 108.688 18.5459C108.225 18.34 107.727 18.2371 107.195 18.2371C106.663 18.2371 106.157 18.34 105.677 18.5459C105.197 18.7518 104.776 19.052 104.416 19.4466C104.056 19.824 103.764 20.2786 103.541 20.8104C103.335 21.3422 103.232 21.9341 103.232 22.586V22.6374C103.232 23.2893 103.335 23.8898 103.541 24.4387C103.764 24.9706 104.056 25.4252 104.416 25.8026C104.776 26.18 105.197 26.4716 105.677 26.6775C106.157 26.8834 106.663 26.9863 107.195 26.9863ZM107.916 29.6883C106.801 29.6883 105.874 29.4481 105.137 28.9677C104.399 28.4874 103.79 27.9298 103.31 27.2951V29.4052H100.196V10.6202H103.31V18.0827C103.807 17.3622 104.425 16.7617 105.162 16.2814C105.9 15.7839 106.818 15.5351 107.916 15.5351C108.722 15.5351 109.503 15.6895 110.257 15.9983C111.012 16.3071 111.681 16.7618 112.265 17.3622C112.865 17.9626 113.345 18.7003 113.706 19.5752C114.066 20.4501 114.246 21.4537 114.246 22.586V22.6374C114.246 23.7697 114.066 24.7733 113.706 25.6482C113.363 26.5231 112.891 27.2608 112.29 27.8612C111.707 28.4617 111.029 28.9163 110.257 29.2251C109.503 29.5339 108.722 29.6883 107.916 29.6883Z" fill="white"/>
<path d="M122.093 29.6625C121.115 29.6625 120.12 29.491 119.108 29.1479C118.113 28.8048 117.186 28.2987 116.328 27.6296L117.718 25.5195C118.456 26.0685 119.202 26.4888 119.957 26.7804C120.729 27.0549 121.466 27.1922 122.17 27.1922C122.839 27.1922 123.354 27.0635 123.714 26.8062C124.091 26.5317 124.28 26.1714 124.28 25.7254V25.6739C124.28 25.4166 124.194 25.1936 124.023 25.0049C123.868 24.8162 123.645 24.6532 123.354 24.5159C123.079 24.3787 122.753 24.25 122.376 24.1299C122.015 24.0099 121.638 23.8898 121.243 23.7697C120.746 23.6324 120.24 23.4695 119.725 23.2808C119.228 23.0921 118.773 22.8519 118.361 22.5602C117.967 22.2514 117.641 21.874 117.383 21.428C117.126 20.982 116.997 20.433 116.997 19.7811V19.7296C116.997 19.0949 117.118 18.5202 117.358 18.0055C117.615 17.4908 117.958 17.0534 118.387 16.6931C118.833 16.3329 119.348 16.0584 119.931 15.8697C120.531 15.681 121.166 15.5866 121.835 15.5866C122.693 15.5866 123.559 15.7239 124.434 15.9983C125.309 16.2728 126.107 16.6502 126.827 17.1306L125.592 19.3436C124.94 18.949 124.28 18.6403 123.611 18.4172C122.942 18.1771 122.324 18.057 121.758 18.057C121.158 18.057 120.686 18.1856 120.343 18.443C120.017 18.7003 119.854 19.0262 119.854 19.4208V19.4723C119.854 19.7125 119.94 19.9269 120.111 20.1156C120.283 20.2872 120.506 20.4501 120.78 20.6045C121.072 20.7418 121.398 20.879 121.758 21.0163C122.135 21.1363 122.521 21.2564 122.916 21.3765C123.414 21.5309 123.911 21.7111 124.409 21.9169C124.906 22.1228 125.352 22.3801 125.747 22.6889C126.158 22.9805 126.493 23.3408 126.75 23.7697C127.008 24.1986 127.136 24.7218 127.136 25.3394V25.3909C127.136 26.1114 127.008 26.7375 126.75 27.2694C126.493 27.8012 126.133 28.2472 125.669 28.6075C125.223 28.9506 124.692 29.2165 124.074 29.4052C123.456 29.5767 122.796 29.6625 122.093 29.6625Z" fill="white"/>
<path d="M130.482 15.8182H133.595V29.4052H130.482V15.8182ZM130.353 10.7746H133.698V13.7338H130.353V10.7746Z" fill="white"/>
<path d="M138.359 18.4944H136.635V15.8954H138.359V14.9176C138.359 13.4079 138.728 12.2842 139.466 11.5465C140.186 10.826 141.207 10.4658 142.528 10.4658C143.077 10.4658 143.549 10.5001 143.943 10.5687C144.338 10.6373 144.707 10.7231 145.05 10.826V13.4508C144.741 13.3478 144.441 13.2706 144.149 13.2192C143.875 13.1506 143.566 13.1163 143.223 13.1163C142.022 13.1163 141.421 13.8025 141.421 15.1749V15.9211H145.024V18.4944H141.473V29.4052H138.359V18.4944Z" fill="white"/>
<path d="M150.119 33.5997C149.467 33.5997 148.883 33.5225 148.369 33.3681C147.871 33.2308 147.382 33.0335 146.902 32.7762L147.957 30.4602C148.249 30.6146 148.54 30.7347 148.832 30.8205C149.141 30.9234 149.458 30.9749 149.784 30.9749C150.23 30.9749 150.599 30.8634 150.891 30.6404C151.182 30.4174 151.457 30.0056 151.714 29.4052L146.053 15.8182H149.372L153.232 25.9055L156.758 15.8182H160L154.596 29.7912C154.322 30.4946 154.039 31.0864 153.747 31.5668C153.455 32.0471 153.129 32.4331 152.769 32.7247C152.409 33.0335 152.014 33.2566 151.585 33.3938C151.156 33.531 150.668 33.5997 150.119 33.5997Z" fill="white"/>
</svg>
