<svg viewBox="0 0 170 56" fill="none" xmlns="http://www.w3.org/2000/svg">
<path d="M28.0169 0C12.5439 0 0 12.5228 0 27.9702C0 43.4182 12.5439 55.94 28.0169 55.94C43.4915 55.94 56.0341 43.4182 56.0341 27.9702C56.0341 12.5238 43.4915 0.00133605 28.0166 0.00133605L28.0169 0ZM40.8653 40.341C40.7457 40.5366 40.5887 40.7067 40.4032 40.8416C40.2177 40.9766 40.0074 41.0736 39.7842 41.1273C39.5611 41.181 39.3296 41.1902 39.1029 41.1544C38.8762 41.1186 38.6588 41.0386 38.4631 40.9188C31.885 36.9074 23.6041 35.999 13.8517 38.2234C13.4001 38.3259 12.9262 38.2453 12.5342 37.9991C12.1422 37.753 11.8641 37.3615 11.7611 36.9108C11.7097 36.6876 11.703 36.4565 11.7413 36.2307C11.7795 36.0049 11.862 35.7889 11.984 35.595C12.106 35.4011 12.2652 35.2331 12.4523 35.1007C12.6394 34.9683 12.8509 34.874 13.0745 34.8233C23.7469 32.389 32.9014 33.4371 40.2865 37.9429C41.1095 38.4472 41.3704 39.5194 40.8653 40.341ZM44.2945 32.725C43.6622 33.7511 42.3172 34.0751 41.2901 33.4438C33.7592 28.8225 22.2796 27.4842 13.3719 30.1836C12.2167 30.532 10.9966 29.882 10.646 28.7307C10.4787 28.1772 10.5381 27.58 10.8111 27.0702C11.0842 26.5603 11.5486 26.1794 12.1026 26.0109C22.2775 22.9287 34.9268 24.4217 43.5752 29.7274C44.6023 30.3586 44.9268 31.701 44.2945 32.725ZM44.5889 24.7945C35.5592 19.44 20.6613 18.9477 12.0401 21.56C10.6557 21.9791 9.19164 21.1989 8.77211 19.8168C8.57038 19.1528 8.64106 18.4359 8.96862 17.8239C9.29617 17.2119 9.85379 16.7549 10.5188 16.5532C20.4154 13.5539 36.8673 14.1334 47.2633 20.2948C47.5596 20.4697 47.8184 20.7014 48.0249 20.9764C48.2314 21.2513 48.3815 21.5643 48.4667 21.8973C48.5518 22.2303 48.5703 22.5768 48.5212 22.917C48.472 23.2571 48.356 23.5843 48.18 23.8796C47.444 25.1228 45.8314 25.5326 44.5902 24.7945H44.5889Z" fill="white"/>
<path d="M68.429 15.6655H72.7815V28.1212L84.5649 15.6655H89.9081L79.6109 26.3166L90.3681 40.4354H85.0957L76.6385 29.289L72.7815 33.2521V40.4354H68.429V15.6655Z" fill="white"/>
<path d="M105.11 32.6152C104.568 32.4029 103.919 32.226 103.164 32.0844C102.433 31.9429 101.654 31.8721 100.828 31.8721C99.4838 31.8721 98.434 32.1316 97.6791 32.6506C96.9242 33.1696 96.5468 33.8773 96.5468 34.7737V34.8445C96.5468 35.7409 96.8889 36.4251 97.573 36.8969C98.2807 37.3687 99.1417 37.6046 100.156 37.6046C100.864 37.6046 101.513 37.5102 102.102 37.3215C102.716 37.1328 103.246 36.8733 103.695 36.543C104.143 36.1891 104.485 35.7763 104.721 35.3045C104.98 34.8091 105.11 34.2665 105.11 33.6768V32.6152ZM105.004 40.4354V38.1354C104.367 38.8903 103.553 39.5272 102.562 40.0462C101.572 40.5652 100.368 40.8247 98.953 40.8247C98.0566 40.8247 97.2073 40.6949 96.4053 40.4354C95.6032 40.1995 94.8955 39.8457 94.2821 39.3739C93.6924 38.8785 93.2088 38.2769 92.8313 37.5692C92.4775 36.8379 92.3005 36.0004 92.3005 35.0568V34.986C92.3005 33.9481 92.4892 33.0516 92.8667 32.2967C93.2441 31.5182 93.7631 30.8813 94.4237 30.3859C95.1078 29.8669 95.9099 29.4895 96.8299 29.2536C97.7735 28.9941 98.7879 28.8643 99.873 28.8643C101.005 28.8643 101.961 28.9351 102.739 29.0766C103.541 29.2182 104.308 29.4069 105.039 29.6428V29.289C105.039 27.9915 104.638 27.0007 103.836 26.3166C103.058 25.6324 101.925 25.2904 100.439 25.2904C99.3776 25.2904 98.434 25.3965 97.6084 25.6088C96.7827 25.8212 95.9452 26.1042 95.096 26.4581L93.9283 23.0257C94.9662 22.5539 96.0278 22.1764 97.113 21.8934C98.1981 21.6103 99.5074 21.4687 101.041 21.4687C103.824 21.4687 105.889 22.1646 107.233 23.5565C108.578 24.9247 109.25 26.8591 109.25 29.3597V40.4354H105.004Z" fill="white"/>
<path d="M120.606 40.7539C119.827 40.7539 119.108 40.6595 118.447 40.4708C117.787 40.2821 117.209 39.9754 116.714 39.5508C116.242 39.1262 115.876 38.5718 115.617 37.8877C115.357 37.1799 115.227 36.3071 115.227 35.2691V25.4319H112.857V21.7518H115.227V16.6209H119.509V21.7518H124.534V25.4319H119.509V34.5968C119.509 35.4225 119.71 36.024 120.111 36.4015C120.512 36.7553 121.078 36.9322 121.809 36.9322C122.729 36.9322 123.614 36.7199 124.463 36.2953V39.7985C123.92 40.1052 123.342 40.3411 122.729 40.5062C122.116 40.6713 121.408 40.7539 120.606 40.7539Z" fill="white"/>
<path d="M129.104 21.7518H133.386V40.4354H129.104V21.7518ZM128.927 14.8162H133.527V18.8856H128.927V14.8162Z" fill="white"/>
<path d="M139.937 25.4319H137.566V21.858H139.937V20.5133C139.937 18.4374 140.444 16.8922 141.458 15.8778C142.449 14.887 143.853 14.3916 145.669 14.3916C146.424 14.3916 147.073 14.4388 147.615 14.5331C148.158 14.6275 148.665 14.7455 149.137 14.887V18.4963C148.712 18.3548 148.3 18.2486 147.899 18.1779C147.521 18.0835 147.096 18.0363 146.625 18.0363C144.973 18.0363 144.148 18.9799 144.148 20.8672V21.8934H149.102V25.4319H144.218V40.4354H139.937V25.4319Z" fill="white"/>
<path d="M156.107 46.2033C155.211 46.2033 154.409 46.0971 153.701 45.8848C153.017 45.6961 152.344 45.4248 151.684 45.0709L153.135 41.8862C153.536 42.0985 153.937 42.2637 154.338 42.3816C154.763 42.5232 155.199 42.5939 155.647 42.5939C156.26 42.5939 156.768 42.4406 157.169 42.1339C157.57 41.8273 157.947 41.2611 158.301 40.4354L150.516 21.7518H155.081L160.389 35.623L165.237 21.7518H169.695L162.264 40.9662C161.887 41.9334 161.498 42.7473 161.097 43.4078C160.695 44.0683 160.247 44.5991 159.752 45.0002C159.256 45.4248 158.714 45.7315 158.124 45.9202C157.534 46.1089 156.862 46.2033 156.107 46.2033Z" fill="white"/>
</svg>
